<svg width="132" height="132" viewBox="0 0 132 132" fill="none" xmlns="http://www.w3.org/2000/svg">
<path d="M52.0951 65.6432C52.0951 68.5798 49.6969 70.9603 46.7386 70.9603C43.7802 70.9603 41.382 68.5798 41.382 65.6432M52.0951 65.6432C52.0951 62.7066 49.6969 60.3261 46.7386 60.3261C43.7802 60.3261 41.382 62.7066 41.382 65.6432M52.0951 65.6432C52.0951 69.5586 48.8975 72.7327 44.9531 72.7327C41.0086 72.7327 37.811 69.5586 37.811 65.6432M41.382 65.6432C41.382 61.7278 44.5796 58.5537 48.5241 58.5537C52.4685 58.5537 55.6661 61.7278 55.6661 65.6432" stroke="#0F0F0F" stroke-width="1.0503" stroke-linecap="round" stroke-linejoin="round"/>
<path d="M64.2153 71.1187C63.2814 71.1187 62.4197 70.902 61.6303 70.4688C60.8504 70.0259 60.2294 69.4146 59.7673 68.6347C59.3148 67.8452 59.0885 66.9595 59.0885 65.9775C59.0885 64.9954 59.3148 64.1145 59.7673 63.3347C60.2294 62.5548 60.8504 61.9483 61.6303 61.515C62.4197 61.0721 63.2814 60.8507 64.2153 60.8507C65.1588 60.8507 66.0205 61.0721 66.8003 61.515C67.5898 61.9483 68.2108 62.5548 68.6633 63.3347C69.1158 64.1145 69.3421 64.9954 69.3421 65.9775C69.3421 66.9595 69.1158 67.8452 68.6633 68.6347C68.2108 69.4146 67.5898 70.0259 66.8003 70.4688C66.0205 70.902 65.1588 71.1187 64.2153 71.1187ZM64.2153 69.689C64.8796 69.689 65.4717 69.5397 65.9916 69.2413C66.5115 68.9332 66.9159 68.4999 67.2047 67.9415C67.5032 67.3735 67.6524 66.7188 67.6524 65.9775C67.6524 65.2361 67.5032 64.5863 67.2047 64.0279C66.9159 63.4694 66.5115 63.041 65.9916 62.7426C65.4717 62.4441 64.8796 62.2949 64.2153 62.2949C63.551 62.2949 62.9589 62.4441 62.439 62.7426C61.9191 63.041 61.5099 63.4694 61.2114 64.0279C60.9226 64.5863 60.7782 65.2361 60.7782 65.9775C60.7782 66.7188 60.9226 67.3735 61.2114 67.9415C61.5099 68.4999 61.9191 68.9332 62.439 69.2413C62.9589 69.5397 63.551 69.689 64.2153 69.689ZM72.6084 64.23C72.8877 63.8642 73.2679 63.5561 73.7493 63.3058C74.2307 63.0555 74.7747 62.9303 75.3812 62.9303C76.0744 62.9303 76.705 63.1036 77.2731 63.4502C77.8507 63.7872 78.3032 64.2637 78.6306 64.8799C78.9579 65.4961 79.1216 66.2037 79.1216 67.0028C79.1216 67.8019 78.9579 68.5192 78.6306 69.1546C78.3032 69.7804 77.8507 70.2714 77.2731 70.6277C76.705 70.9743 76.0744 71.1476 75.3812 71.1476C74.7747 71.1476 74.2355 71.0272 73.7638 70.7865C73.292 70.5362 72.9069 70.2281 72.6084 69.8623V74.8013H70.9621V63.0603H72.6084V64.23ZM77.4464 67.0028C77.4464 66.454 77.3308 65.9823 77.0998 65.5875C76.8783 65.1832 76.5799 64.8799 76.2044 64.6777C75.8385 64.4659 75.4438 64.36 75.0202 64.36C74.6062 64.36 74.2115 64.4659 73.836 64.6777C73.4701 64.8895 73.1717 65.1976 72.9406 65.602C72.7192 66.0064 72.6084 66.4829 72.6084 67.0317C72.6084 67.5805 72.7192 68.0619 72.9406 68.4759C73.1717 68.8802 73.4701 69.1883 73.836 69.4001C74.2115 69.6119 74.6062 69.7178 75.0202 69.7178C75.4438 69.7178 75.8385 69.6119 76.2044 69.4001C76.5799 69.1787 76.8783 68.861 77.0998 68.447C77.3308 68.033 77.4464 67.5516 77.4464 67.0028ZM80.2009 67.0028C80.2009 66.2037 80.3646 65.4961 80.6919 64.8799C81.0289 64.2637 81.4814 63.7872 82.0494 63.4502C82.6271 63.1036 83.2625 62.9303 83.9557 62.9303C84.5815 62.9303 85.1255 63.0555 85.5876 63.3058C86.0594 63.5465 86.4348 63.8497 86.714 64.2156V63.0603H88.3748V71.0176H86.714V69.8334C86.4348 70.2088 86.0545 70.5218 85.5732 70.7721C85.0918 71.0224 84.543 71.1476 83.9268 71.1476C83.2432 71.1476 82.6174 70.9743 82.0494 70.6277C81.4814 70.2714 81.0289 69.7804 80.6919 69.1546C80.3646 68.5192 80.2009 67.8019 80.2009 67.0028ZM86.714 67.0317C86.714 66.4829 86.5985 66.0064 86.3674 65.602C86.146 65.1976 85.8524 64.8895 85.4865 64.6777C85.1206 64.4659 84.7259 64.36 84.3023 64.36C83.8787 64.36 83.4839 64.4659 83.1181 64.6777C82.7522 64.8799 82.4538 65.1832 82.2227 65.5875C82.0013 65.9823 81.8905 66.454 81.8905 67.0028C81.8905 67.5516 82.0013 68.033 82.2227 68.447C82.4538 68.861 82.7522 69.1787 83.1181 69.4001C83.4936 69.6119 83.8883 69.7178 84.3023 69.7178C84.7259 69.7178 85.1206 69.6119 85.4865 69.4001C85.8524 69.1883 86.146 68.8802 86.3674 68.4759C86.5985 68.0619 86.714 67.5805 86.714 67.0317ZM92.1836 60.3308V71.0176H90.5372V60.3308H92.1836Z" fill="#0F0F0F"/>
</svg>
