<svg width="132" height="132" viewBox="0 0 132 132" fill="none" xmlns="http://www.w3.org/2000/svg">
<path fill-rule="evenodd" clip-rule="evenodd" d="M52.4147 69.0815C52.9804 68.0632 53.3025 66.8911 53.3025 65.6437C53.3025 64.3964 52.9804 63.2243 52.4149 62.2061C52.4127 62.3214 52.3728 62.4367 52.2932 62.5322C52.1075 62.755 51.7764 62.7851 51.5536 62.5994C51.3769 62.4522 51.2514 62.3505 51.0957 62.2751C50.9507 62.2049 50.7577 62.1486 50.4585 62.1486C50.1769 62.1486 49.9864 62.2036 49.8359 62.2758C49.6742 62.3535 49.5394 62.4587 49.3553 62.6061L49.3416 62.617C49.17 62.7544 48.9511 62.9296 48.673 63.0631C48.3762 63.2055 48.0299 63.2937 47.5959 63.2937C47.1509 63.2937 46.7999 63.2068 46.5012 63.0623C46.2209 62.9267 46.0069 62.7483 45.8419 62.6107L45.8419 62.6107L45.8284 62.5994C45.6517 62.4522 45.5262 62.3505 45.3705 62.2751C45.2255 62.2049 45.0325 62.1486 44.7333 62.1486C44.4517 62.1486 44.2612 62.2036 44.1107 62.2758C43.949 62.3535 43.8142 62.4587 43.6301 62.6061L43.6164 62.617C43.4448 62.7544 43.2259 62.9296 42.9478 63.0631C42.651 63.2055 42.3047 63.2937 41.8707 63.2937C41.4257 63.2937 41.0747 63.2068 40.776 63.0623C40.4957 62.9267 40.2817 62.7483 40.1167 62.6107L40.1032 62.5994C40.0205 62.5305 39.9643 62.4415 39.9359 62.3454C39.4171 63.3306 39.1235 64.4529 39.1235 65.6437C39.1235 66.831 39.4154 67.9501 39.9313 68.9332C39.9502 68.8608 39.9849 68.7913 40.036 68.7301C40.2216 68.5072 40.5528 68.4771 40.7756 68.6628C40.9523 68.8101 41.0778 68.9118 41.2335 68.9871C41.3785 69.0573 41.5714 69.1136 41.8707 69.1136C42.1523 69.1136 42.3427 69.0587 42.4933 68.9864C42.655 68.9088 42.7898 68.8035 42.9739 68.6562L42.9876 68.6453C43.1592 68.5079 43.3781 68.3327 43.6562 68.1992C43.953 68.0568 44.2993 67.9686 44.7333 67.9686C45.1783 67.9686 45.5293 68.0554 45.828 68.1999C46.1083 68.3356 46.3223 68.514 46.4873 68.6516L46.4873 68.6516L46.5008 68.6628C46.6775 68.8101 46.803 68.9118 46.9587 68.9871C47.1037 69.0573 47.2966 69.1136 47.5959 69.1136C47.8775 69.1136 48.0679 69.0587 48.2185 68.9864C48.3802 68.9088 48.515 68.8035 48.6991 68.6562L48.7128 68.6453C48.8844 68.5079 49.1033 68.3327 49.3814 68.1992C49.6782 68.0568 50.0245 67.9686 50.4585 67.9686C50.9035 67.9686 51.2545 68.0554 51.5532 68.1999C51.8335 68.3356 52.0475 68.514 52.2125 68.6516L52.2125 68.6516L52.226 68.6628C52.3547 68.7701 52.4191 68.926 52.4147 69.0815ZM52.1472 69.5241C51.9628 69.6278 51.7258 69.6132 51.5536 69.4697C51.3769 69.3224 51.2514 69.2207 51.0957 69.1454C50.9507 69.0752 50.7577 69.0189 50.4585 69.0189C50.1769 69.0189 49.9864 69.0738 49.8359 69.1461C49.6742 69.2237 49.5394 69.329 49.3553 69.4763L49.3416 69.4872L49.3416 69.4873C49.1699 69.6246 48.9511 69.7998 48.673 69.9333C48.3762 70.0757 48.0299 70.1639 47.5959 70.1639C47.1509 70.1639 46.7999 70.0771 46.5012 69.9326C46.2209 69.7969 46.0069 69.6185 45.8419 69.4809L45.8284 69.4697C45.6517 69.3224 45.5262 69.2207 45.3705 69.1454C45.2255 69.0752 45.0325 69.0189 44.7333 69.0189C44.4517 69.0189 44.2612 69.0738 44.1107 69.1461C43.949 69.2237 43.8142 69.329 43.6301 69.4763L43.6164 69.4872C43.4448 69.6246 43.2259 69.7998 42.9478 69.9333C42.651 70.0757 42.3047 70.1639 41.8707 70.1639C41.4257 70.1639 41.0747 70.0771 40.776 69.9326C40.6358 69.8647 40.5123 69.7862 40.4031 69.7075C41.6851 71.537 43.8094 72.7332 46.213 72.7332C48.6961 72.7332 50.881 71.4567 52.1472 69.5241ZM40.3331 61.6817C40.4843 61.6506 40.6478 61.6861 40.7756 61.7926C40.9523 61.9398 41.0778 62.0416 41.2335 62.1169C41.3785 62.1871 41.5714 62.2434 41.8707 62.2434C42.1523 62.2434 42.3427 62.1884 42.4933 62.1162C42.655 62.0386 42.7898 61.9333 42.9739 61.7859L42.9876 61.775C43.1592 61.6376 43.3781 61.4625 43.6562 61.329C43.953 61.1865 44.2993 61.0983 44.7333 61.0983C45.1783 61.0983 45.5293 61.1852 45.828 61.3297C46.1083 61.4653 46.3223 61.6437 46.4873 61.7814L46.5008 61.7926C46.6775 61.9398 46.803 62.0416 46.9587 62.1169C47.1037 62.1871 47.2966 62.2434 47.5959 62.2434C47.8775 62.2434 48.0679 62.1884 48.2185 62.1162C48.3802 62.0386 48.515 61.9333 48.6991 61.7859L48.7128 61.775C48.8844 61.6376 49.1033 61.4625 49.3814 61.329C49.6782 61.1865 50.0245 61.0983 50.4585 61.0983C50.9035 61.0983 51.2545 61.1852 51.5532 61.3297C51.771 61.4351 51.9488 61.5663 52.0946 61.6842C50.821 59.7959 48.662 58.5542 46.213 58.5542C43.7651 58.5542 41.607 59.7949 40.3331 61.6817ZM41.8707 66.7288C42.3047 66.7288 42.651 66.6406 42.9478 66.4982C43.2259 66.3647 43.4448 66.1895 43.6164 66.0521L43.6301 66.0412C43.8142 65.8939 43.949 65.7886 44.1107 65.711C44.2612 65.6387 44.4517 65.5838 44.7333 65.5838C45.0325 65.5838 45.2255 65.6401 45.3705 65.7102C45.5262 65.7856 45.6517 65.8873 45.8284 66.0346L45.8419 66.0458L45.8419 66.0458C46.0069 66.1834 46.2209 66.3618 46.5012 66.4975C46.7999 66.642 47.1509 66.7288 47.5959 66.7288C48.0299 66.7288 48.3762 66.6406 48.673 66.4982C48.9511 66.3647 49.17 66.1895 49.3416 66.0521L49.3553 66.0412C49.5394 65.8939 49.6742 65.7886 49.8359 65.711C49.9864 65.6387 50.1769 65.5838 50.4585 65.5838C50.7577 65.5838 50.9507 65.6401 51.0957 65.7102C51.2514 65.7856 51.3769 65.8873 51.5536 66.0346C51.7764 66.2202 52.1075 66.1901 52.2932 65.9673C52.4789 65.7445 52.4488 65.4134 52.226 65.2277L52.2125 65.2165C52.0475 65.0789 51.8335 64.9005 51.5532 64.7648C51.2545 64.6203 50.9035 64.5335 50.4585 64.5335C50.0245 64.5335 49.6782 64.6217 49.3814 64.7641C49.1033 64.8976 48.8844 65.0728 48.7128 65.2101L48.6991 65.2211C48.515 65.3684 48.3802 65.4737 48.2185 65.5513C48.0679 65.6236 47.8775 65.6785 47.5959 65.6785C47.2966 65.6785 47.1037 65.6222 46.9587 65.552C46.803 65.4767 46.6775 65.3749 46.5008 65.2277L46.4873 65.2165C46.3223 65.0789 46.1083 64.9005 45.828 64.7648C45.5293 64.6203 45.1783 64.5335 44.7333 64.5335C44.2993 64.5335 43.953 64.6217 43.6562 64.7641C43.3781 64.8976 43.1592 65.0728 42.9876 65.2101L42.9739 65.2211C42.7898 65.3684 42.655 65.4737 42.4933 65.5513C42.3427 65.6236 42.1523 65.6785 41.8707 65.6785C41.5714 65.6785 41.3785 65.6222 41.2335 65.552C41.0778 65.4767 40.9523 65.3749 40.7756 65.2277C40.5528 65.042 40.2216 65.0721 40.036 65.2949C39.8503 65.5177 39.8804 65.8489 40.1032 66.0346L40.1167 66.0458C40.2817 66.1834 40.4957 66.3618 40.776 66.4975C41.0747 66.642 41.4257 66.7288 41.8707 66.7288Z" fill="#0F0F0F"/>
<path d="M60.812 69.5846C59.963 69.5846 59.1796 69.3876 58.4619 68.9938C57.753 68.5912 57.1885 68.0354 56.7683 67.3264C56.357 66.6087 56.1513 65.8035 56.1513 64.9108C56.1513 64.018 56.357 63.2172 56.7683 62.5082C57.1885 61.7993 57.753 61.2478 58.4619 60.854C59.1796 60.4514 59.963 60.2501 60.812 60.2501C61.6697 60.2501 62.4531 60.4514 63.162 60.854C63.8797 61.2478 64.4443 61.7993 64.8556 62.5082C65.267 63.2172 65.4727 64.018 65.4727 64.9108C65.4727 65.8035 65.267 66.6087 64.8556 67.3264C64.4443 68.0354 63.8797 68.5912 63.162 68.9938C62.4531 69.3876 61.6697 69.5846 60.812 69.5846ZM60.812 68.2848C61.4159 68.2848 61.9542 68.1492 62.4268 67.8778C62.8994 67.5978 63.267 67.2039 63.5296 66.6963C63.801 66.1799 63.9366 65.5847 63.9366 64.9108C63.9366 64.2368 63.801 63.646 63.5296 63.1384C63.267 62.6307 62.8994 62.2413 62.4268 61.9699C61.9542 61.6986 61.4159 61.5629 60.812 61.5629C60.2081 61.5629 59.6698 61.6986 59.1972 61.9699C58.7245 62.2413 58.3525 62.6307 58.0812 63.1384C57.8186 63.646 57.6873 64.2368 57.6873 64.9108C57.6873 65.5847 57.8186 66.1799 58.0812 66.6963C58.3525 67.2039 58.7245 67.5978 59.1972 67.8778C59.6698 68.1492 60.2081 68.2848 60.812 68.2848ZM66.4466 65.8429C66.4466 65.1164 66.5953 64.4731 66.8929 63.913C67.1993 63.3528 67.6106 62.9196 68.127 62.6132C68.6522 62.2981 69.2298 62.1406 69.86 62.1406C70.4289 62.1406 70.9234 62.2544 71.3436 62.4819C71.7724 62.7008 72.1138 62.9765 72.3676 63.3091V62.2588H73.8774V69.4927H72.3676V68.4161C72.1138 68.7575 71.7681 69.0419 71.3304 69.2695C70.8928 69.4971 70.3939 69.6108 69.8338 69.6108C69.2123 69.6108 68.6434 69.4533 68.127 69.1382C67.6106 68.8144 67.1993 68.368 66.8929 67.7991C66.5953 67.2214 66.4466 66.5693 66.4466 65.8429ZM72.3676 65.8692C72.3676 65.3703 72.2626 64.937 72.0525 64.5694C71.8512 64.2018 71.5843 63.9217 71.2517 63.7292C70.9191 63.5366 70.5602 63.4403 70.1751 63.4403C69.79 63.4403 69.4311 63.5366 69.0986 63.7292C68.766 63.913 68.4946 64.1887 68.2846 64.5563C68.0833 64.9151 67.9826 65.344 67.9826 65.8429C67.9826 66.3418 68.0833 66.7794 68.2846 67.1558C68.4946 67.5321 68.766 67.821 69.0986 68.0223C69.4399 68.2148 69.7988 68.3111 70.1751 68.3111C70.5602 68.3111 70.9191 68.2148 71.2517 68.0223C71.5843 67.8297 71.8512 67.5496 72.0525 67.182C72.2626 66.8057 72.3676 66.368 72.3676 65.8692ZM78.469 69.6108C77.9001 69.6108 77.388 69.5102 76.9329 69.3089C76.4865 69.0988 76.1321 68.8187 75.8695 68.4686C75.6069 68.1098 75.4669 67.7115 75.4494 67.2739H76.9986C77.0248 67.5803 77.1692 67.8385 77.4318 68.0485C77.7031 68.2498 78.0401 68.3505 78.4427 68.3505C78.8628 68.3505 79.1867 68.2717 79.4142 68.1142C79.6506 67.9479 79.7687 67.7378 79.7687 67.484C79.7687 67.2127 79.6374 67.0113 79.3748 66.8801C79.121 66.7488 78.714 66.6044 78.1539 66.4468C77.6112 66.298 77.1692 66.1536 76.8279 66.0136C76.4865 65.8735 76.1889 65.6591 75.9351 65.3703C75.6901 65.0814 75.5675 64.7007 75.5675 64.2281C75.5675 63.843 75.6813 63.4929 75.9089 63.1778C76.1364 62.8539 76.4603 62.6001 76.8804 62.4163C77.3093 62.2325 77.7994 62.1406 78.3508 62.1406C79.1735 62.1406 79.8344 62.3507 80.3332 62.7708C80.8409 63.1821 81.1122 63.7467 81.1472 64.4644H79.6506C79.6243 64.1405 79.493 63.8823 79.2567 63.6898C79.0204 63.4972 78.7009 63.401 78.2983 63.401C77.9044 63.401 77.6025 63.4754 77.3924 63.6241C77.1824 63.7729 77.0773 63.9699 77.0773 64.2149C77.0773 64.4075 77.1473 64.5694 77.2874 64.7007C77.4274 64.832 77.5981 64.937 77.7994 65.0158C78.0007 65.0858 78.2983 65.1777 78.6922 65.2915C79.2173 65.4315 79.6462 65.5759 79.9788 65.7247C80.3201 65.8648 80.6133 66.0748 80.8584 66.3549C81.1035 66.635 81.2304 67.007 81.2391 67.4709C81.2391 67.8822 81.1253 68.2498 80.8978 68.5737C80.6702 68.8975 80.3464 69.1513 79.9263 69.3351C79.5149 69.5189 79.0291 69.6108 78.469 69.6108ZM83.6178 61.3004C83.3465 61.3004 83.1189 61.2085 82.9351 61.0247C82.7513 60.8409 82.6594 60.6133 82.6594 60.342C82.6594 60.0706 82.7513 59.8431 82.9351 59.6593C83.1189 59.4755 83.3465 59.3836 83.6178 59.3836C83.8804 59.3836 84.1035 59.4755 84.2873 59.6593C84.4711 59.8431 84.563 60.0706 84.563 60.342C84.563 60.6133 84.4711 60.8409 84.2873 61.0247C84.1035 61.2085 83.8804 61.3004 83.6178 61.3004ZM84.353 62.2588V69.4927H82.8563V62.2588H84.353ZM88.9437 69.6108C88.3748 69.6108 87.8628 69.5102 87.4077 69.3089C86.9613 69.0988 86.6068 68.8187 86.3442 68.4686C86.0817 68.1098 85.9416 67.7115 85.9241 67.2739H87.4733C87.4996 67.5803 87.644 67.8385 87.9066 68.0485C88.1779 68.2498 88.5149 68.3505 88.9175 68.3505C89.3376 68.3505 89.6614 68.2717 89.889 68.1142C90.1253 67.9479 90.2435 67.7378 90.2435 67.484C90.2435 67.2127 90.1122 67.0113 89.8496 66.8801C89.5958 66.7488 89.1888 66.6044 88.6286 66.4468C88.086 66.298 87.644 66.1536 87.3026 66.0136C86.9613 65.8735 86.6637 65.6591 86.4099 65.3703C86.1648 65.0814 86.0423 64.7007 86.0423 64.2281C86.0423 63.843 86.1561 63.4929 86.3836 63.1778C86.6112 62.8539 86.935 62.6001 87.3552 62.4163C87.784 62.2325 88.2742 62.1406 88.8256 62.1406C89.6483 62.1406 90.3091 62.3507 90.808 62.7708C91.3156 63.1821 91.587 63.7467 91.622 64.4644H90.1253C90.0991 64.1405 89.9678 63.8823 89.7314 63.6898C89.4951 63.4972 89.1757 63.401 88.7731 63.401C88.3792 63.401 88.0772 63.4754 87.8672 63.6241C87.6571 63.7729 87.5521 63.9699 87.5521 64.2149C87.5521 64.4075 87.6221 64.5694 87.7621 64.7007C87.9022 64.832 88.0729 64.937 88.2742 65.0158C88.4755 65.0858 88.7731 65.1777 89.1669 65.2915C89.6921 65.4315 90.1209 65.5759 90.4535 65.7247C90.7949 65.8648 91.0881 66.0748 91.3332 66.3549C91.5782 66.635 91.7051 67.007 91.7139 67.4709C91.7139 67.8822 91.6001 68.2498 91.3725 68.5737C91.145 68.8975 90.8211 69.1513 90.401 69.3351C89.9896 69.5189 89.5039 69.6108 88.9437 69.6108Z" fill="#0F0F0F"/>
</svg>
