<svg width="132" height="132" viewBox="0 0 132 132" fill="none" xmlns="http://www.w3.org/2000/svg">
<path d="M24.4628 71.989C20.8374 71.989 17.8985 69.0501 17.8985 65.4247C17.8985 61.7993 20.8374 58.8603 24.4628 58.8603C26.9859 58.8603 29.408 59.8669 30.2754 62.3714C30.3792 62.3647 30.484 62.3613 30.5896 62.3613C33.2482 62.3613 35.4034 64.5166 35.4034 67.1752C35.4034 69.8338 33.2482 71.989 30.5896 71.989C28.3564 71.989 26.7581 71.989 24.4628 71.989Z" stroke="#0F0F0F" stroke-width="1.31287" stroke-linecap="round" stroke-linejoin="round"/>
<path d="M37.82 65.9775C37.82 64.9954 38.0462 64.1145 38.4987 63.3347C38.9609 62.5548 39.5819 61.9483 40.3617 61.515C41.1512 61.0721 42.0129 60.8507 42.9467 60.8507C44.0154 60.8507 44.9638 61.1155 45.7917 61.645C46.6293 62.1649 47.2359 62.9062 47.6114 63.869H45.6329C45.3729 63.3395 45.0119 62.9447 44.5498 62.6848C44.0876 62.4248 43.5533 62.2949 42.9467 62.2949C42.2824 62.2949 41.6903 62.4441 41.1704 62.7426C40.6505 63.041 40.2414 63.4694 39.9429 64.0279C39.6541 64.5863 39.5096 65.2361 39.5096 65.9775C39.5096 66.7188 39.6541 67.3687 39.9429 67.9271C40.2414 68.4855 40.6505 68.9187 41.1704 69.2268C41.6903 69.5253 42.2824 69.6745 42.9467 69.6745C43.5533 69.6745 44.0876 69.5445 44.5498 69.2846C45.0119 69.0246 45.3729 68.6299 45.6329 68.1004H47.6114C47.2359 69.0632 46.6293 69.8045 45.7917 70.3244C44.9638 70.8443 44.0154 71.1042 42.9467 71.1042C42.0032 71.1042 41.1415 70.8876 40.3617 70.4544C39.5819 70.0115 38.9609 69.4001 38.4987 68.6203C38.0462 67.8404 37.82 66.9595 37.82 65.9775ZM51.1848 60.3308V71.0176H49.5384V60.3308H51.1848ZM56.7978 71.1476C56.0468 71.1476 55.3681 70.9791 54.7615 70.6421C54.155 70.2955 53.6784 69.8141 53.3318 69.1979C52.9852 68.5721 52.8119 67.8501 52.8119 67.0317C52.8119 66.223 52.99 65.5057 53.3463 64.8799C53.7025 64.2541 54.1887 63.7727 54.8049 63.4357C55.421 63.0988 56.1094 62.9303 56.87 62.9303C57.6306 62.9303 58.319 63.0988 58.9351 63.4357C59.5513 63.7727 60.0375 64.2541 60.3937 64.8799C60.75 65.5057 60.9281 66.223 60.9281 67.0317C60.9281 67.8404 60.7452 68.5577 60.3793 69.1835C60.0135 69.8093 59.5128 70.2955 58.8774 70.6421C58.2516 70.9791 57.5584 71.1476 56.7978 71.1476ZM56.7978 69.7178C57.2214 69.7178 57.6162 69.6167 57.982 69.4146C58.3575 69.2124 58.6608 68.9091 58.8918 68.5047C59.1229 68.1004 59.2384 67.6094 59.2384 67.0317C59.2384 66.454 59.1277 65.9678 58.9063 65.5731C58.6848 65.1687 58.3912 64.8655 58.0253 64.6633C57.6595 64.4611 57.2647 64.36 56.8411 64.36C56.4175 64.36 56.0228 64.4611 55.6569 64.6633C55.3007 64.8655 55.0167 65.1687 54.8049 65.5731C54.593 65.9678 54.4871 66.454 54.4871 67.0317C54.4871 67.8886 54.7038 68.5529 55.137 69.0246C55.5799 69.4868 56.1335 69.7178 56.7978 69.7178ZM69.7619 63.0603V71.0176H68.1156V70.0789C67.8556 70.4062 67.5139 70.6662 67.0902 70.8587C66.6762 71.0416 66.2334 71.1331 65.7616 71.1331C65.1358 71.1331 64.5726 71.0031 64.072 70.7432C63.5809 70.4832 63.191 70.0981 62.9022 69.5879C62.623 69.0776 62.4834 68.4614 62.4834 67.7393V63.0603H64.1153V67.4938C64.1153 68.2063 64.2934 68.7551 64.6496 69.1402C65.0058 69.5157 65.492 69.7034 66.1082 69.7034C66.7244 69.7034 67.2106 69.5157 67.5668 69.1402C67.9327 68.7551 68.1156 68.2063 68.1156 67.4938V63.0603H69.7619ZM71.3854 67.0028C71.3854 66.2037 71.549 65.4961 71.8764 64.8799C72.2134 64.2637 72.6659 63.7872 73.2339 63.4502C73.8116 63.1036 74.4518 62.9303 75.1546 62.9303C75.6745 62.9303 76.1848 63.0458 76.6854 63.2769C77.1957 63.4983 77.6001 63.7968 77.8985 64.1723V60.3308H79.5593V71.0176H77.8985V69.8189C77.6289 70.204 77.2535 70.5218 76.7721 70.7721C76.3003 71.0224 75.7564 71.1476 75.1402 71.1476C74.447 71.1476 73.8116 70.9743 73.2339 70.6277C72.6659 70.2714 72.2134 69.7804 71.8764 69.1546C71.549 68.5192 71.3854 67.8019 71.3854 67.0028ZM77.8985 67.0317C77.8985 66.4829 77.783 66.0064 77.5519 65.602C77.3305 65.1976 77.0368 64.8895 76.671 64.6777C76.3051 64.4659 75.9104 64.36 75.4868 64.36C75.0632 64.36 74.6684 64.4659 74.3026 64.6777C73.9367 64.8799 73.6383 65.1832 73.4072 65.5875C73.1858 65.9823 73.075 66.454 73.075 67.0028C73.075 67.5516 73.1858 68.033 73.4072 68.447C73.6383 68.861 73.9367 69.1787 74.3026 69.4001C74.6781 69.6119 75.0728 69.7178 75.4868 69.7178C75.9104 69.7178 76.3051 69.6119 76.671 69.4001C77.0368 69.1883 77.3305 68.8802 77.5519 68.4759C77.783 68.0619 77.8985 67.5805 77.8985 67.0317ZM85.0577 64.4033H83.5847V71.0176H81.9239V64.4033H80.9852V63.0603H81.9239V62.497C81.9239 61.5824 82.1646 60.9181 82.646 60.5041C83.137 60.0805 83.9024 59.8687 84.9422 59.8687V61.2406C84.4415 61.2406 84.0901 61.3369 83.8879 61.5295C83.6858 61.7124 83.5847 62.0349 83.5847 62.497V63.0603H85.0577V64.4033ZM89.9683 71.1476C89.2173 71.1476 88.5386 70.9791 87.932 70.6421C87.3255 70.2955 86.8489 69.8141 86.5023 69.1979C86.1557 68.5721 85.9824 67.8501 85.9824 67.0317C85.9824 66.223 86.1605 65.5057 86.5168 64.8799C86.873 64.2541 87.3592 63.7727 87.9754 63.4357C88.5915 63.0988 89.2799 62.9303 90.0405 62.9303C90.8011 62.9303 91.4895 63.0988 92.1056 63.4357C92.7218 63.7727 93.208 64.2541 93.5642 64.8799C93.9205 65.5057 94.0986 66.223 94.0986 67.0317C94.0986 67.8404 93.9157 68.5577 93.5498 69.1835C93.184 69.8093 92.6833 70.2955 92.0479 70.6421C91.4221 70.9791 90.7289 71.1476 89.9683 71.1476ZM89.9683 69.7178C90.3919 69.7178 90.7867 69.6167 91.1525 69.4146C91.528 69.2124 91.8313 68.9091 92.0623 68.5047C92.2934 68.1004 92.4089 67.6094 92.4089 67.0317C92.4089 66.454 92.2982 65.9678 92.0768 65.5731C91.8553 65.1687 91.5617 64.8655 91.1958 64.6633C90.83 64.4611 90.4352 64.36 90.0116 64.36C89.588 64.36 89.1933 64.4611 88.8274 64.6633C88.4712 64.8655 88.1872 65.1687 87.9754 65.5731C87.7635 65.9678 87.6576 66.454 87.6576 67.0317C87.6576 67.8886 87.8743 68.5529 88.3075 69.0246C88.7504 69.4868 89.304 69.7178 89.9683 69.7178ZM97.3724 64.2156C97.6131 63.8112 97.9308 63.4983 98.3256 63.2769C98.7299 63.0458 99.2065 62.9303 99.7553 62.9303V64.6344H99.3365C98.6914 64.6344 98.2004 64.7981 97.8634 65.1254C97.5361 65.4528 97.3724 66.0208 97.3724 66.8295V71.0176H95.7261V63.0603H97.3724V64.2156ZM110.901 62.9303C111.527 62.9303 112.085 63.0603 112.576 63.3202C113.077 63.5802 113.467 63.9653 113.746 64.4755C114.035 64.9858 114.179 65.602 114.179 66.3241V71.0176H112.547V66.5696C112.547 65.8571 112.369 65.3132 112.013 64.9377C111.657 64.5526 111.171 64.36 110.555 64.36C109.938 64.36 109.447 64.5526 109.081 64.9377C108.725 65.3132 108.547 65.8571 108.547 66.5696V71.0176H106.915V66.5696C106.915 65.8571 106.737 65.3132 106.381 64.9377C106.025 64.5526 105.538 64.36 104.922 64.36C104.306 64.36 103.815 64.5526 103.449 64.9377C103.093 65.3132 102.915 65.8571 102.915 66.5696V71.0176H101.269V63.0603H102.915V63.9701C103.185 63.6427 103.526 63.3876 103.94 63.2047C104.354 63.0218 104.797 62.9303 105.269 62.9303C105.904 62.9303 106.472 63.0651 106.973 63.3347C107.474 63.6042 107.859 63.9942 108.128 64.5044C108.369 64.023 108.745 63.6427 109.255 63.3635C109.765 63.0747 110.314 62.9303 110.901 62.9303Z" fill="#0F0F0F"/>
</svg>
