<svg width="132" height="132" viewBox="0 0 132 132" fill="none" xmlns="http://www.w3.org/2000/svg">
<path d="M45.1631 59.8662V61.9806C45.8858 61.9801 46.6015 62.1221 47.2692 62.3984C47.937 62.6748 48.5437 63.08 49.0546 63.591C49.5654 64.1018 49.9705 64.7083 50.2467 65.3758C50.5229 66.0432 50.6649 66.7585 50.6644 67.4809H52.7777C52.7758 65.4622 51.973 63.5267 50.5454 62.0991C49.1179 60.6716 47.1822 59.8685 45.1631 59.8662V59.8662Z" fill="#0F0F0F"/>
<path d="M47.2429 56.1904H45.1631V58.0724C47.6577 58.075 50.0493 59.0671 51.8133 60.831C53.5772 62.5949 54.5694 64.9865 54.5721 67.4811H56.4538V65.4013C56.0283 63.1153 54.9206 61.0119 53.2765 59.3677C51.6323 57.7236 49.5289 56.6159 47.2429 56.1904Z" fill="#0F0F0F"/>
<path d="M60.7032 67.5532H58.7153L63.1821 55.1406H65.3458L69.8127 67.5532H67.8247L64.3155 57.3953H64.2185L60.7032 67.5532ZM61.0366 62.6924H67.4853V64.2682H61.0366V62.6924ZM71.4597 67.5532V58.2438H73.2113V59.7226H73.3083C73.478 59.2216 73.777 58.8276 74.2053 58.5408C74.6376 58.2498 75.1265 58.1044 75.672 58.1044C75.7851 58.1044 75.9185 58.1084 76.072 58.1165C76.2296 58.1246 76.3528 58.1347 76.4417 58.1468V59.8802C76.369 59.86 76.2397 59.8378 76.0538 59.8135C75.868 59.7852 75.6821 59.7711 75.4962 59.7711C75.0679 59.7711 74.6861 59.862 74.3507 60.0438C74.0194 60.2216 73.7568 60.4701 73.5628 60.7893C73.3689 61.1045 73.2719 61.4641 73.2719 61.8682V67.5532H71.4597ZM81.598 67.7411C80.6969 67.7411 79.9211 67.5371 79.2706 67.129C78.6241 66.7168 78.1271 66.1491 77.7796 65.4259C77.4322 64.7026 77.2584 63.8743 77.2584 62.9409C77.2584 61.9954 77.4362 61.1611 77.7918 60.4378C78.1473 59.7105 78.6484 59.1428 79.2949 58.7347C79.9413 58.3266 80.703 58.1226 81.5798 58.1226C82.2869 58.1226 82.9172 58.2539 83.4708 58.5165C84.0243 58.7751 84.4708 59.1388 84.8102 59.6075C85.1537 60.0762 85.3577 60.6237 85.4224 61.25H83.6587C83.5617 60.8136 83.3394 60.4378 82.992 60.1226C82.6485 59.8075 82.1879 59.6499 81.6101 59.6499C81.105 59.6499 80.6626 59.7832 80.2828 60.0499C79.907 60.3125 79.6141 60.6883 79.4039 61.1772C79.1938 61.6621 79.0888 62.2358 79.0888 62.8985C79.0888 63.5773 79.1918 64.1632 79.3979 64.6561C79.604 65.1491 79.8949 65.5309 80.2706 65.8016C80.6505 66.0724 81.0969 66.2077 81.6101 66.2077C81.9535 66.2077 82.2647 66.1451 82.5435 66.0198C82.8263 65.8905 83.0627 65.7067 83.2526 65.4683C83.4465 65.2299 83.5819 64.943 83.6587 64.6077H85.4224C85.3577 65.2097 85.1617 65.7471 84.8345 66.2198C84.5072 66.6926 84.0688 67.0643 83.5193 67.335C82.9738 67.6057 82.3334 67.7411 81.598 67.7411Z" fill="#0F0F0F"/>
</svg>
