<svg width="163" height="163" viewBox="0 0 163 163" fill="none" xmlns="http://www.w3.org/2000/svg">
<path d="M34.7974 76.8273L36.5222 78.552M36.5222 78.552L38.2469 76.8273M36.5222 78.552L36.5222 73.809C36.5222 72.8564 37.2944 72.0842 38.2469 72.0842H43.4211C44.3737 72.0842 45.1459 72.8564 45.1459 73.809V78.552M38.2469 84.5886L36.5222 82.8639M36.5222 82.8639L34.7974 84.5886M36.5222 82.8639V87.6069C36.5222 88.5595 35.75 89.3317 34.7974 89.3317H29.6232C28.6706 89.3317 27.8984 88.5595 27.8984 87.6069V82.8639M40.4028 78.9832L38.6781 80.708M38.6781 80.708L40.4028 82.4327M38.6781 80.708L43.4211 80.708C44.3737 80.708 45.1459 81.4802 45.1459 82.4327V87.6069C45.1459 88.5595 44.3737 89.3317 43.4211 89.3317H38.6781M32.6415 82.4327L34.3662 80.708M34.3662 80.708L32.6415 78.9832M34.3662 80.708L29.6232 80.708C28.6706 80.708 27.8984 79.9357 27.8984 78.9832V73.809C27.8984 72.8564 28.6706 72.0842 29.6232 72.0842H34.3662" stroke="#0F0F0F" stroke-width="1.30169" stroke-linecap="round" stroke-linejoin="round"/>
<path d="M65.17 74.8524V87.2917H63.1296V78.7722L59.3352 87.2917H57.9212L54.1089 78.7722V87.2917H52.0684V74.8524H54.2699L58.6371 84.607L62.9864 74.8524H65.17ZM66.2768 82.316C66.2768 81.3256 66.4796 80.4486 66.8853 79.685C67.3029 78.9213 67.8637 78.3307 68.5677 77.913C69.2837 77.4835 70.0712 77.2687 70.9303 77.2687C71.7059 77.2687 72.3801 77.4238 72.9528 77.7341C73.5375 78.0324 74.0029 78.4082 74.3489 78.8616V77.4298H76.4072V87.2917H74.3489V85.8241C74.0029 86.2894 73.5315 86.6772 72.9349 86.9875C72.3383 87.2977 71.6582 87.4528 70.8945 87.4528C70.0473 87.4528 69.2717 87.2381 68.5677 86.8085C67.8637 86.367 67.3029 85.7585 66.8853 84.9829C66.4796 84.1953 66.2768 83.3064 66.2768 82.316ZM74.3489 82.3518C74.3489 81.6717 74.2057 81.081 73.9193 80.5799C73.6449 80.0787 73.281 79.6969 72.8275 79.4344C72.3741 79.1719 71.8849 79.0406 71.3599 79.0406C70.8349 79.0406 70.3456 79.1719 69.8922 79.4344C69.4388 79.685 69.0689 80.0608 68.7825 80.562C68.5081 81.0512 68.3709 81.6359 68.3709 82.316C68.3709 82.9962 68.5081 83.5928 68.7825 84.1058C69.0689 84.6189 69.4388 85.0127 69.8922 85.2871C70.3576 85.5496 70.8468 85.6809 71.3599 85.6809C71.8849 85.6809 72.3741 85.5496 72.8275 85.2871C73.281 85.0246 73.6449 84.6428 73.9193 84.1416C74.2057 83.6286 74.3489 83.032 74.3489 82.3518ZM79.2304 76.1232C78.8605 76.1232 78.5502 75.9979 78.2997 75.7473C78.0491 75.4968 77.9238 75.1865 77.9238 74.8166C77.9238 74.4467 78.0491 74.1365 78.2997 73.8859C78.5502 73.6353 78.8605 73.5101 79.2304 73.5101C79.5883 73.5101 79.8926 73.6353 80.1432 73.8859C80.3938 74.1365 80.5191 74.4467 80.5191 74.8166C80.5191 75.1865 80.3938 75.4968 80.1432 75.7473C79.8926 75.9979 79.5883 76.1232 79.2304 76.1232ZM80.2327 77.4298V87.2917H78.1923V77.4298H80.2327ZM86.9924 77.2687C87.768 77.2687 88.46 77.4298 89.0686 77.752C89.6891 78.0741 90.1723 78.5514 90.5183 79.1838C90.8644 79.8162 91.0374 80.5799 91.0374 81.4748V87.2917H89.0149V81.7791C89.0149 80.8961 88.7941 80.2219 88.3526 79.7566C87.9112 79.2793 87.3086 79.0406 86.5449 79.0406C85.7813 79.0406 85.1727 79.2793 84.7193 79.7566C84.2778 80.2219 84.0571 80.8961 84.0571 81.7791V87.2917H82.0166V77.4298H84.0571V78.5574C84.3912 78.1517 84.8147 77.8355 85.3278 77.6088C85.8529 77.3821 86.4077 77.2687 86.9924 77.2687ZM94.7856 78.8795C95.1316 78.4261 95.6029 78.0443 96.1995 77.7341C96.7961 77.4238 97.4703 77.2687 98.222 77.2687C99.0811 77.2687 99.8627 77.4835 100.567 77.913C101.283 78.3307 101.843 78.9213 102.249 79.685C102.655 80.4486 102.858 81.3256 102.858 82.316C102.858 83.3064 102.655 84.1953 102.249 84.9829C101.843 85.7585 101.283 86.367 100.567 86.8085C99.8627 87.2381 99.0811 87.4528 98.222 87.4528C97.4703 87.4528 96.8021 87.3037 96.2174 87.0054C95.6327 86.6951 95.1554 86.3133 94.7856 85.8599V91.9811H92.7451V77.4298H94.7856V78.8795ZM100.781 82.316C100.781 81.6359 100.638 81.0512 100.352 80.562C100.077 80.0608 99.7076 79.685 99.2422 79.4344C98.7888 79.1719 98.2996 79.0406 97.7746 79.0406C97.2615 79.0406 96.7723 79.1719 96.3069 79.4344C95.8535 79.6969 95.4836 80.0787 95.1972 80.5799C94.9228 81.081 94.7856 81.6717 94.7856 82.3518C94.7856 83.032 94.9228 83.6286 95.1972 84.1416C95.4836 84.6428 95.8535 85.0246 96.3069 85.2871C96.7723 85.5496 97.2615 85.6809 97.7746 85.6809C98.2996 85.6809 98.7888 85.5496 99.2422 85.2871C99.7076 85.0127 100.077 84.6189 100.352 84.1058C100.638 83.5928 100.781 82.9962 100.781 82.316ZM108.258 87.4528C107.328 87.4528 106.486 87.244 105.735 86.8264C104.983 86.3968 104.392 85.8002 103.963 85.0366C103.533 84.261 103.318 83.3661 103.318 82.3518C103.318 81.3495 103.539 80.4606 103.981 79.685C104.422 78.9094 105.025 78.3128 105.788 77.8951C106.552 77.4775 107.405 77.2687 108.348 77.2687C109.29 77.2687 110.144 77.4775 110.907 77.8951C111.671 78.3128 112.273 78.9094 112.715 79.685C113.156 80.4606 113.377 81.3495 113.377 82.3518C113.377 83.3541 113.15 84.2431 112.697 85.0187C112.244 85.7943 111.623 86.3968 110.836 86.8264C110.06 87.244 109.201 87.4528 108.258 87.4528ZM108.258 85.6809C108.783 85.6809 109.272 85.5556 109.726 85.305C110.191 85.0545 110.567 84.6786 110.853 84.1774C111.14 83.6763 111.283 83.0677 111.283 82.3518C111.283 81.6359 111.146 81.0333 110.871 80.5441C110.597 80.0429 110.233 79.6671 109.78 79.4165C109.326 79.1659 108.837 79.0406 108.312 79.0406C107.787 79.0406 107.298 79.1659 106.844 79.4165C106.403 79.6671 106.051 80.0429 105.788 80.5441C105.526 81.0333 105.394 81.6359 105.394 82.3518C105.394 83.4138 105.663 84.2371 106.2 84.8218C106.749 85.3945 107.435 85.6809 108.258 85.6809ZM115.537 76.1232C115.167 76.1232 114.857 75.9979 114.607 75.7473C114.356 75.4968 114.231 75.1865 114.231 74.8166C114.231 74.4467 114.356 74.1365 114.607 73.8859C114.857 73.6353 115.167 73.5101 115.537 73.5101C115.895 73.5101 116.2 73.6353 116.45 73.8859C116.701 74.1365 116.826 74.4467 116.826 74.8166C116.826 75.1865 116.701 75.4968 116.45 75.7473C116.2 75.9979 115.895 76.1232 115.537 76.1232ZM116.54 77.4298V87.2917H114.499V77.4298H116.54ZM123.299 77.2687C124.075 77.2687 124.767 77.4298 125.376 77.752C125.996 78.0741 126.479 78.5514 126.825 79.1838C127.171 79.8162 127.344 80.5799 127.344 81.4748V87.2917H125.322V81.7791C125.322 80.8961 125.101 80.2219 124.66 79.7566C124.218 79.2793 123.616 79.0406 122.852 79.0406C122.088 79.0406 121.48 79.2793 121.026 79.7566C120.585 80.2219 120.364 80.8961 120.364 81.7791V87.2917H118.324V77.4298H120.364V78.5574C120.698 78.1517 121.122 77.8355 121.635 77.6088C122.16 77.3821 122.715 77.2687 123.299 77.2687ZM131.433 79.0943V84.5533C131.433 84.9232 131.516 85.1917 131.683 85.3587C131.862 85.5138 132.16 85.5914 132.578 85.5914H133.831V87.2917H132.22C131.301 87.2917 130.597 87.077 130.108 86.6474C129.619 86.2178 129.374 85.5198 129.374 84.5533V79.0943H128.211V77.4298H129.374V74.9777H131.433V77.4298H133.831V79.0943H131.433Z" fill="#0F0F0F"/>
</svg>
