<?xml version="1.0" encoding="UTF-8"?>
<svg id="a" data-name="Layer 1" xmlns="http://www.w3.org/2000/svg" width="300" height="300" viewBox="0 0 300 300">
  <path d="M229.91,145.323v-26.593c0-2.227-1.805-4.033-4.033-4.033h-20.288c-11.221,0-20.318-9.097-20.318-20.318V17.154c0-2.227-1.805-4.033-4.033-4.033h-27.483c-2.227,0-4.033,1.805-4.033,4.033v48.506c0,2.431-1.971,4.402-4.402,4.402h-26.592c-2.227,0-4.033,1.805-4.033,4.033v20.287c0,11.221-9.096,20.317-20.317,20.317H17.153c-2.227,0-4.033,1.805-4.033,4.033v27.512c0,2.227,1.805,4.033,4.033,4.033h48.506c2.431,0,4.402,1.971,4.402,4.402v26.564c0,2.227,1.805,4.033,4.033,4.033h20.288c11.221,0,20.318,9.097,20.318,20.318v77.256c0,2.227,1.805,4.033,4.033,4.033h27.512c2.227,0,4.033-1.805,4.033-4.033v-48.506c0-2.431,1.971-4.402,4.402-4.402h26.563c2.227,0,4.033-1.805,4.033-4.033v-20.287c0-11.237,9.109-20.346,20.346-20.346h77.228c2.227,0,4.033-1.805,4.033-4.033v-27.482c0-2.227-1.805-4.033-4.033-4.033h-48.535c-2.431,0-4.402-1.971-4.402-4.402ZM147.57,189.133c-5.598-17.367-19.343-31.114-36.694-36.69-2.398-.771-2.4-4.095-.002-4.868,17.352-5.59,31.098-19.34,36.696-36.709.773-2.397,4.098-2.395,4.867.004,5.57,17.367,19.31,31.115,36.66,36.705,2.398.773,2.396,4.097-.002,4.868-17.349,5.576-31.088,19.321-36.658,36.687-.769,2.398-4.095,2.401-4.867.004Z" fill="#191919"/>
</svg>
