<svg width="1393" height="202" viewBox="0 0 1393 202" fill="none" xmlns="http://www.w3.org/2000/svg">
<path d="M69.298 84.5996L48.898 130.8C46.098 140 46.098 144.9 48.898 145.5C56.698 148.3 67.598 139.4 81.598 118.8C82.398 117.8 83.298 117.1 84.298 116.7C85.4981 116.3 86.6981 116.3 87.8981 116.7C89.0981 116.9 90.198 117.3 91.198 117.9C92.1981 118.5 92.7981 119.3 92.998 120.3C93.398 121.3 93.498 122.4 93.298 123.6C90.298 128.8 86.698 134.4 82.498 140.4C78.4981 146.4 73.698 152.7 68.098 159.3C62.698 165.9 56.898 171.5 50.698 176.1C44.498 180.7 38.898 183.2 33.898 183.6C29.298 184 25.198 184 21.598 183.6C17.998 183.2 14.598 182.1 11.398 180.3C8.79805 179.1 6.69805 177.6 5.09805 175.8C3.29805 173.8 2.09805 171.6 1.49805 169.2C0.898046 166.8 0.498046 164.5 0.298046 162.3C0.0980454 159.9 0.398045 157.1 1.19805 153.9C1.79805 150.7 2.39805 147.9 2.99805 145.5C3.59805 142.9 4.59805 139.9 5.99805 136.5C7.39805 132.9 8.59805 130 9.59805 127.8C10.398 125.6 11.598 122.8 13.198 119.4C14.598 116 15.598 113.6 16.198 112.2C21.598 99.7996 29.498 81.2996 39.898 56.6996C50.498 31.8996 58.498 13.2996 63.898 0.899603C73.498 1.49961 87.5981 1.99961 106.198 2.3996L72.598 77.0996H72.898L71.698 79.1996L69.298 84.5996ZM189.739 123.6C184.539 133 177.839 143 169.639 153.6C161.639 164.2 153.539 172.2 145.339 177.6C138.339 183 128.739 185.5 116.539 185.1C104.539 184.7 95.2387 181.4 88.6387 175.2C83.4387 170.6 80.0387 164.6 78.4387 157.2C76.6387 149.8 76.6387 142.2 78.4387 134.4C80.2387 126.6 83.0387 118.6 86.8387 110.4C90.6387 102 95.4387 94.5996 101.239 88.1996C107.239 81.7996 113.539 76.3996 120.139 71.9996C126.939 67.3996 134.039 64.8996 141.439 64.4996C148.839 64.0996 155.939 65.6996 162.739 69.2996C167.939 71.8996 171.339 75.4996 172.939 80.0996C174.539 84.6996 174.439 89.3996 172.639 94.1996C170.839 98.9996 167.939 103.2 163.939 106.8C160.139 111 155.439 115.1 149.839 119.1C144.439 123.1 139.739 126.2 135.739 128.4C131.939 130.6 126.839 133.4 120.439 136.8C121.039 142.4 122.839 146.4 125.839 148.8C129.039 151 132.739 151.8 136.939 151.2C141.139 150.6 145.439 149.3 149.839 147.3C154.439 145.1 158.639 142.4 162.439 139.2C169.839 130.8 175.339 124 178.939 118.8C180.339 116.2 182.739 115.6 186.139 117C189.739 118.4 190.939 120.6 189.739 123.6ZM124.039 113.7C123.839 114.5 123.539 115.6 123.139 117C122.739 118.2 122.539 119.1 122.539 119.7C130.339 116.3 138.639 109.8 147.439 100.2C157.039 89.5996 158.639 83.5996 152.239 82.1996C151.439 81.9996 150.539 81.8996 149.539 81.8996C146.939 81.8996 144.039 83.2996 140.839 86.0996C137.839 88.8996 134.739 92.7996 131.539 97.7996C128.539 102.6 126.039 107.9 124.039 113.7ZM194.939 185.7C186.939 185.7 179.539 184.1 172.739 180.9C165.939 177.5 161.239 172.7 158.639 166.5C181.639 112.3 196.239 77.9996 202.439 63.5996C207.439 63.7996 214.639 64.0996 224.039 64.4996C233.639 64.8996 240.739 65.1996 245.339 65.3996C244.939 66.3996 244.039 68.4996 242.639 71.6996C241.239 74.8996 240.139 77.1996 239.339 78.5996C245.539 74.7996 251.639 71.6996 257.639 69.2996C263.639 66.8996 269.439 65.1996 275.039 64.1996C280.839 62.9996 285.439 63.7996 288.839 66.5996C292.239 69.1996 293.639 73.7996 293.039 80.3996C311.039 68.7996 325.639 63.2996 336.839 63.8996C348.639 64.4996 352.139 73.4996 347.339 90.8996C343.539 99.4996 339.439 109.4 335.039 120.6C330.839 131.8 327.539 140.3 325.139 146.1C332.939 147.3 343.439 138.2 356.639 118.8C357.239 117.8 358.139 117.1 359.339 116.7C360.539 116.3 361.639 116.3 362.639 116.7C363.839 116.9 364.939 117.3 365.939 117.9C366.939 118.5 367.639 119.3 368.039 120.3C368.439 121.3 368.439 122.4 368.039 123.6C365.039 128.8 361.439 134.5 357.239 140.7C353.239 146.7 348.539 153.1 343.139 159.9C337.739 166.7 331.939 172.5 325.739 177.3C319.739 181.9 314.139 184.4 308.939 184.8H307.139C299.939 185.6 294.139 184.4 289.739 181.2C285.539 178 282.939 173.7 281.939 168.3C281.139 162.7 281.039 157 281.639 151.2C282.239 145.4 283.539 139.7 285.539 134.1L305.639 87.5996C297.839 90.5996 290.339 97.8996 283.139 109.5C271.139 140.3 260.639 165.7 251.639 185.7C243.239 185.7 235.539 183.9 228.539 180.3C221.539 176.7 217.439 171.6 216.239 165L249.239 87.5996C241.639 90.3996 233.939 98.0996 226.139 110.7C224.939 113.3 222.539 119.3 218.939 128.7C215.339 138.1 211.739 146.9 208.139 155.1C204.739 163.3 200.339 173.5 194.939 185.7ZM470.85 118.8C472.05 117.4 473.65 116.7 475.65 116.7C477.65 116.5 479.35 117.2 480.75 118.8C482.35 120.2 482.75 121.8 481.95 123.6C479.35 128.4 477.15 132.3 475.35 135.3C473.55 138.1 470.85 142.1 467.25 147.3C463.65 152.3 460.25 156.3 457.05 159.3C454.05 162.3 450.35 164.9 445.95 167.1C441.75 169.3 437.45 170.3 433.05 170.1C423.65 179.9 413.55 184.8 402.75 184.8C396.35 185 390.25 183.7 384.45 180.9C378.85 177.9 373.95 174 369.75 169.2C365.55 164.2 362.35 158.3 360.15 151.5C357.75 144.7 356.55 137.6 356.55 130.2C356.55 122.8 358.15 115.1 361.35 107.1C364.35 98.8996 368.95 91.1996 375.15 83.9996C382.55 75.3996 392.35 69.1996 404.55 65.3996C415.15 61.9996 420.85 62.9996 421.65 68.3996C421.85 69.9996 421.45 71.9996 420.45 74.3996C431.85 62.3996 441.45 61.3996 449.25 71.3996C456.45 80.3996 459.65 93.6996 458.85 111.3C458.25 122.5 455.85 132.3 451.65 140.7C457.45 136.3 463.85 129 470.85 118.8ZM403.05 146.1C397.25 142.9 394.75 134.7 395.55 121.5C396.35 108.3 400.15 96.0996 406.95 84.8996C396.95 95.4996 390.55 107.9 387.75 122.1C385.15 135.9 387.75 143.8 395.55 145.8C397.75 146.4 400.25 146.5 403.05 146.1ZM487.301 185.7C479.301 185.7 471.901 184.1 465.101 180.9C458.301 177.5 453.601 172.7 451.001 166.5C465.201 133.3 479.801 98.9996 494.801 63.5996C499.601 63.7996 506.701 64.0996 516.101 64.4996C525.701 64.8996 532.901 65.0996 537.701 65.0996C537.101 66.6996 536.201 68.7996 535.001 71.3996C533.801 73.9996 533.001 75.9996 532.601 77.3996C536.801 74.9996 541.001 72.7996 545.201 70.7996C549.401 68.7996 553.801 67.0996 558.401 65.6996C563.001 64.2996 567.001 63.6996 570.401 63.8996C573.801 63.8996 576.801 64.6996 579.401 66.2996C582.001 67.8996 583.401 70.7996 583.601 74.9996C584.001 78.9996 583.501 84.1996 582.101 90.5996C579.101 97.5996 576.301 104.3 573.701 110.7C571.101 117.1 568.601 123.3 566.201 129.3C564.001 135.1 561.801 140.6 559.601 145.8C567.201 147.2 577.801 138.2 591.401 118.8C593.001 116.2 595.501 115.6 598.901 117C602.501 118.4 603.701 120.6 602.501 123.6C599.501 128.8 596.001 134.5 592.001 140.7C588.001 146.7 583.201 153.1 577.601 159.9C572.201 166.7 566.401 172.5 560.201 177.3C554.201 181.9 548.601 184.4 543.401 184.8H541.601C534.401 185.6 528.601 184.4 524.201 181.2C520.001 178 517.401 173.7 516.401 168.3C515.601 162.7 515.501 157 516.101 151.2C516.701 145.4 518.001 139.7 520.001 134.1L540.101 87.5996C533.701 90.1996 527.201 95.8996 520.601 104.7C519.201 108.5 516.501 115.4 512.501 125.4C508.701 135.2 505.001 144.4 501.401 153C497.801 161.6 493.101 172.5 487.301 185.7ZM801.621 117.9C802.821 116.3 804.321 115.5 806.121 115.5C808.121 115.3 809.821 116 811.221 117.6C812.821 119 813.321 120.6 812.721 122.4C804.921 136.8 797.721 148.7 791.121 158.1C784.521 167.3 778.821 173.8 774.021 177.6C769.221 181.4 764.621 183.4 760.221 183.6C756.021 183.8 752.421 182.8 749.421 180.6C746.621 178.4 743.821 175.1 741.021 170.7C735.021 175.5 727.621 179.2 718.821 181.8C710.221 184.2 702.221 184.7 694.821 183.3C688.221 182.5 683.021 180.2 679.221 176.4C675.221 172.4 672.921 167.1 672.321 160.5C671.521 153.9 671.321 147.1 671.721 140.1C671.921 133.1 673.621 124.6 676.821 114.6C679.821 104.6 682.621 95.8996 685.221 88.4996C687.621 81.0996 691.121 72.0996 695.721 61.4996C700.521 50.6996 704.121 42.6996 706.521 37.4996C708.921 32.0996 712.221 25.0996 716.421 16.4996C717.421 14.0996 718.121 12.3996 718.521 11.3996C719.121 10.1996 719.821 8.7996 720.621 7.19959C721.421 5.5996 722.021 4.1996 722.421 2.99959C723.021 1.7996 723.521 0.799598 723.921 -0.000403643C733.321 0.399603 747.421 0.899603 766.221 1.49959C754.221 28.0996 745.121 48.4996 738.921 62.6996L739.821 62.3996C748.221 61.1996 756.721 64.5996 765.321 72.5996C770.921 77.5996 774.421 84.0996 775.821 92.0996C777.221 100.1 776.821 108.4 774.621 117C772.621 125.6 769.221 134.2 764.421 142.8C766.821 144.6 769.321 145.3 771.921 144.9C777.921 143.9 784.721 139 792.321 130.2C795.321 126.6 798.421 122.5 801.621 117.9ZM717.621 144.6C719.821 144.6 722.421 143.4 725.421 141C722.621 136.8 720.021 134.8 717.621 135C714.421 135 712.521 136.6 711.921 139.8C712.921 143 714.821 144.6 717.621 144.6ZM746.721 112.5C748.921 107.3 749.921 100.8 749.721 92.9996C749.521 84.9996 747.621 80.9996 744.021 80.9996C740.621 80.9996 736.021 84.8996 730.221 92.6996C724.621 100.5 720.821 107.1 718.821 112.5L717.321 117L717.621 116.4L717.921 115.2C725.521 113.6 733.621 116.2 742.221 123C744.021 119.6 745.521 116.1 746.721 112.5ZM809.426 184.8C804.426 184.4 800.426 183.1 797.426 180.9C794.226 178.5 792.226 175.2 791.426 171C790.626 166.8 790.326 162.4 790.526 157.8C790.526 153 791.426 147.5 793.226 141.3C795.026 135.1 796.826 129.4 798.626 124.2C800.426 118.8 802.826 112.9 805.826 106.5C808.626 100.1 810.926 94.8996 812.726 90.8996C814.726 86.8996 816.926 82.4996 819.326 77.6996C821.926 72.6996 823.426 69.6996 823.826 68.6996C824.226 68.0996 824.626 67.3996 825.026 66.5996C825.426 65.7996 825.826 65.0996 826.226 64.4996L864.626 64.7996C843.226 109.2 833.526 135.5 835.526 143.7C836.526 148.5 841.026 145.4 849.026 134.4C861.026 118 872.926 94.6996 884.726 64.4996L926.426 64.7996C925.426 67.7996 921.826 76.1996 915.626 89.9996C909.426 103.8 904.126 116.3 899.726 127.5C895.326 138.7 894.226 144.7 896.426 145.5C904.026 148.3 915.026 139.4 929.426 118.8C931.026 116.2 933.526 115.6 936.926 117C940.326 118.4 941.526 120.6 940.526 123.6C937.926 128.2 934.126 133.8 929.126 140.4C924.126 146.8 918.526 153.2 912.326 159.6C906.326 166 899.826 171.5 892.826 176.1C886.026 180.7 880.026 183.2 874.826 183.6C870.026 184 865.926 184.2 862.526 184.2C859.326 184 856.826 183.2 855.026 181.8C853.226 180.2 851.926 178.7 851.126 177.3C850.326 175.7 849.826 173.8 849.626 171.6C849.626 169.2 849.726 167.2 849.926 165.6C850.126 163.8 850.426 161.9 850.826 159.9C851.226 157.9 851.426 156.6 851.426 156C839.626 176.4 825.626 186 809.426 184.8ZM1022.63 117.9C1023.83 116.3 1025.43 115.5 1027.43 115.5C1029.43 115.3 1031.13 116 1032.53 117.6C1034.13 119 1034.53 120.6 1033.73 122.4C1030.93 127.6 1027.43 133.3 1023.23 139.5C1019.23 145.5 1014.43 151.8 1008.83 158.4C1003.43 165 997.632 170.6 991.432 175.2C985.432 179.8 979.832 182.3 974.632 182.7C962.432 184.1 953.832 181.3 948.832 174.3C943.832 167.3 943.132 157.3 946.732 144.3C951.332 127.1 958.332 110 967.732 92.9996C964.532 92.5996 961.532 92.0996 958.732 91.4996C956.532 95.0996 953.232 100.7 948.832 108.3C944.432 115.7 940.832 121.8 938.032 126.6C935.232 131.2 931.732 136.6 927.532 142.8C923.132 148.8 919.032 153.8 915.232 157.8C912.032 160.4 908.932 161.2 905.932 160.2C902.932 159 901.132 157 900.532 154.2C899.732 151.4 900.232 148.7 902.032 146.1C903.032 145.7 905.632 143.7 909.832 140.1C913.032 137.3 916.632 133.5 920.632 128.7C924.432 123.9 927.532 119.8 929.932 116.4C932.332 113 935.732 108 940.132 101.4C944.532 94.5996 947.232 90.3996 948.232 88.7996C938.832 85.1996 934.332 79.7996 934.732 72.5996C935.132 66.5996 937.032 61.8996 940.432 58.4996C944.032 55.0996 948.332 52.9996 953.332 52.1996C962.132 50.9996 967.832 53.0996 970.432 58.4996C973.232 63.6996 972.432 69.6996 968.032 76.4996C970.032 76.6996 972.932 76.8996 976.732 77.0996C980.532 77.2996 983.732 77.4996 986.332 77.6996C988.932 77.8996 991.632 78.2996 994.432 78.8996C997.232 79.2996 999.532 79.9996 1001.33 80.9996C1003.33 81.7996 1004.63 82.9996 1005.23 84.5996C1006.43 87.1996 1006.23 90.1996 1004.63 93.5996C998.032 106.8 993.132 118.4 989.932 128.4C986.932 138.2 986.832 143.6 989.632 144.6C993.232 145.8 997.832 144.3 1003.43 140.1C1009.03 135.7 1015.43 128.3 1022.63 117.9ZM958.132 74.3996C958.932 73.1996 959.332 71.9996 959.332 70.7996C959.532 69.3996 959.332 68.3996 958.732 67.7996C958.132 66.9996 957.232 66.8996 956.032 67.4996C954.432 68.0996 953.632 69.1996 953.632 70.7996C953.832 72.3996 955.332 73.5996 958.132 74.3996ZM1129 123.6C1123.8 133 1117.1 143 1108.9 153.6C1100.9 164.2 1092.8 172.2 1084.6 177.6C1077.6 183 1068 185.5 1055.8 185.1C1043.8 184.7 1034.5 181.4 1027.9 175.2C1022.7 170.6 1019.3 164.6 1017.7 157.2C1015.9 149.8 1015.9 142.2 1017.7 134.4C1019.5 126.6 1022.3 118.6 1026.1 110.4C1029.9 102 1034.7 94.5996 1040.5 88.1996C1046.5 81.7996 1052.8 76.3996 1059.4 71.9996C1066.2 67.3996 1073.3 64.8996 1080.7 64.4996C1088.1 64.0996 1095.2 65.6996 1102 69.2996C1107.2 71.8996 1110.6 75.4996 1112.2 80.0996C1113.8 84.6996 1113.7 89.3996 1111.9 94.1996C1110.1 98.9996 1107.2 103.2 1103.2 106.8C1099.4 111 1094.7 115.1 1089.1 119.1C1083.7 123.1 1079 126.2 1075 128.4C1071.2 130.6 1066.1 133.4 1059.7 136.8C1060.3 142.4 1062.1 146.4 1065.1 148.8C1068.3 151 1072 151.8 1076.2 151.2C1080.4 150.6 1084.7 149.3 1089.1 147.3C1093.7 145.1 1097.9 142.4 1101.7 139.2C1109.1 130.8 1114.6 124 1118.2 118.8C1119.6 116.2 1122 115.6 1125.4 117C1129 118.4 1130.2 120.6 1129 123.6ZM1063.3 113.7C1063.1 114.5 1062.8 115.6 1062.4 117C1062 118.2 1061.8 119.1 1061.8 119.7C1069.6 116.3 1077.9 109.8 1086.7 100.2C1096.3 89.5996 1097.9 83.5996 1091.5 82.1996C1090.7 81.9996 1089.8 81.8996 1088.8 81.8996C1086.2 81.8996 1083.3 83.2996 1080.1 86.0996C1077.1 88.8996 1074 92.7996 1070.8 97.7996C1067.8 102.6 1065.3 107.9 1063.3 113.7ZM1220.9 64.7996H1250C1236.2 79.5996 1226.6 97.1996 1221.2 117.6C1217.4 132.6 1217.8 141.5 1222.4 144.3C1228 147.7 1237.7 139.5 1251.5 119.7C1251.7 119.5 1251.9 119.2 1252.1 118.8C1252.7 117.8 1253.6 117.1 1254.8 116.7C1256 116.3 1257.1 116.3 1258.1 116.7C1259.3 116.9 1260.4 117.3 1261.4 117.9C1262.4 118.5 1263.1 119.3 1263.5 120.3C1263.9 121.3 1263.9 122.4 1263.5 123.6C1252.5 143.6 1240.3 159.5 1226.9 171.3C1204.1 191.5 1187.7 187.7 1177.7 159.9C1174.1 165.3 1170.3 169.9 1166.3 173.7C1162.5 177.5 1158.3 180.5 1153.7 182.7C1149.1 184.7 1144.2 185.2 1139 184.2C1133.8 183 1128.7 180 1123.7 175.2C1112.1 164.6 1109.2 148.6 1115 127.2C1120.4 108.4 1130.3 92.5996 1144.7 79.7996C1161.5 64.7996 1177.7 60.5996 1193.3 67.1996C1199.9 69.7996 1205.9 74.4996 1211.3 81.2996C1214.5 73.8996 1217.7 68.3996 1220.9 64.7996ZM1187 113.7C1190.2 104.9 1191.5 97.3996 1190.9 91.1996C1190.5 84.9996 1188.3 81.8996 1184.3 81.8996C1180.5 81.8996 1176.1 84.9996 1171.1 91.1996C1166.3 97.3996 1162.3 104.9 1159.1 113.7C1156.1 122.3 1154.8 129.8 1155.2 136.2C1155.8 142.4 1158 145.5 1161.8 145.5C1165.6 145.5 1169.9 142.4 1174.7 136.2C1179.7 129.8 1183.8 122.3 1187 113.7ZM1260.31 184.8C1255.31 184.4 1251.31 183.1 1248.31 180.9C1245.11 178.5 1243.11 175.2 1242.31 171C1241.51 166.8 1241.21 162.4 1241.41 157.8C1241.41 153 1242.31 147.5 1244.11 141.3C1245.91 135.1 1247.71 129.4 1249.51 124.2C1251.31 118.8 1253.71 112.9 1256.71 106.5C1259.51 100.1 1261.81 94.8996 1263.61 90.8996C1265.61 86.8996 1267.81 82.4996 1270.21 77.6996C1272.81 72.6996 1274.31 69.6996 1274.71 68.6996C1275.11 68.0996 1275.51 67.3996 1275.91 66.5996C1276.31 65.7996 1276.71 65.0996 1277.11 64.4996L1315.51 64.7996C1294.11 109.2 1284.41 135.5 1286.41 143.7C1287.41 148.5 1291.91 145.4 1299.91 134.4C1311.91 118 1323.81 94.6996 1335.61 64.4996L1377.31 64.7996C1376.31 67.7996 1372.71 76.1996 1366.51 89.9996C1360.31 103.8 1355.01 116.3 1350.61 127.5C1346.21 138.7 1345.11 144.7 1347.31 145.5C1354.91 148.3 1365.91 139.4 1380.31 118.8C1381.91 116.2 1384.41 115.6 1387.81 117C1391.21 118.4 1392.41 120.6 1391.41 123.6C1388.81 128.2 1385.01 133.8 1380.01 140.4C1375.01 146.8 1369.41 153.2 1363.21 159.6C1357.21 166 1350.71 171.5 1343.71 176.1C1336.91 180.7 1330.91 183.2 1325.71 183.6C1320.91 184 1316.81 184.2 1313.41 184.2C1310.21 184 1307.71 183.2 1305.91 181.8C1304.11 180.2 1302.81 178.7 1302.01 177.3C1301.21 175.7 1300.71 173.8 1300.51 171.6C1300.51 169.2 1300.61 167.2 1300.81 165.6C1301.01 163.8 1301.31 161.9 1301.71 159.9C1302.11 157.9 1302.31 156.6 1302.31 156C1290.51 176.4 1276.51 186 1260.31 184.8Z" fill="#FFD601"/>
</svg>
